<svg width="48" height="48" viewBox="0 0 48 48" fill="none" xmlns="http://www.w3.org/2000/svg">
<path d="M38.0936 20.1227C37.6631 21.2749 35.5756 21.1631 34.4539 21.6647C31.9863 22.7667 30.0413 23.5448 29.9447 24.8103C29.68 28.2687 36.5862 35.4094 33.205 37.7038C29.8245 39.9982 28.4299 26.6205 23.3637 27.5617C18.2996 28.5053 21.9129 38.5878 17.3216 37.6473C12.728 36.7053 20.6667 25.1085 18.5953 21.9519C15.9305 17.8919 9.45201 14.8917 9.80627 12.8157C10.1154 11.0048 11.6275 11.2994 12.0442 11.7552C21.4133 22.0277 34.2077 18.2695 36.724 18.4014C37.975 18.467 38.4471 19.1795 38.0936 20.1227ZM25.0502 10.1445C27.1134 9.69582 29.0657 10.6311 29.4149 12.2327C29.7641 13.8344 28.3768 15.496 26.3129 15.9455C24.2514 16.3942 22.299 15.4597 21.9506 13.8581C21.6015 12.2568 22.9887 10.594 25.0502 10.1449M23.9996 0.000395058C10.7446 0.000395058 0 10.7453 0 24.001C0 37.2567 10.7446 48 23.9996 48C37.2547 48 48 37.2559 48 24.001C48 10.7461 37.2547 0 23.9996 0" fill="#CC5224"/>
</svg>
