<svg width="30" height="30" viewBox="0 0 30 30" fill="none" xmlns="http://www.w3.org/2000/svg">
<g id="Logo">
<path id="Vector" d="M16.4676 23.8257C16.5668 25.1477 15.523 26.2523 14.2205 26.2523C13.5268 26.2523 12.9067 25.9381 12.4935 25.4462C12.3284 25.25 12.0103 25.3614 12.0103 25.6172V29.9993H22.9486C23.5408 29.9993 24.0206 29.5196 24.0206 28.928V17.9999H19.6336C19.3779 17.9999 19.2663 17.6824 19.4622 17.5181C19.9548 17.1049 20.2691 16.4845 20.2691 15.7912C20.2691 14.4905 19.164 13.4468 17.8408 13.5458C16.7263 13.6299 15.8332 14.5379 15.7656 15.6518C15.7204 16.403 16.0442 17.0799 16.5717 17.5203C16.7661 17.6828 16.6492 17.9996 16.3958 17.9996H12.0099V22.3816C12.0099 22.6356 12.3273 22.7514 12.4897 22.5568C12.9308 22.029 13.6091 21.7066 14.3593 21.7514C15.4753 21.819 16.383 22.7118 16.4672 23.825" fill="#FFBD00"/>
<path id="Vector_2" d="M23.8213 7.54669C25.1441 7.44771 26.2496 8.49027 26.2496 9.79206C26.2496 10.485 25.9353 11.1051 25.4427 11.5178C25.2464 11.6826 25.3577 12.0008 25.6141 12.0008H30V1.07132C30 0.47963 29.5202 0 28.928 0H17.9908V4.38316C17.9908 4.63866 17.6727 4.75035 17.5087 4.55461C17.0951 4.06228 16.4743 3.74851 15.7806 3.74851C14.4788 3.74851 13.4342 4.8527 13.5335 6.17504C13.6173 7.28858 14.5262 8.18097 15.6414 8.24821C16.3931 8.29341 17.0707 7.97029 17.5114 7.44285C17.6742 7.24861 17.9912 7.36515 17.9912 7.61879V12.0008H22.377C22.6312 12.0008 22.7474 11.6841 22.5522 11.5212C22.0239 11.0804 21.7013 10.4028 21.7464 9.65311C21.8141 8.53771 22.7075 7.63112 23.8217 7.54707" fill="#F94C00"/>
<path id="Vector_3" d="M7.55266 12.1738C7.45339 10.8518 8.49722 9.74723 9.79974 9.74723C10.4935 9.74723 11.1135 10.0614 11.5268 10.5533C11.6918 10.7494 12.01 10.6381 12.01 10.3823V6.00021H1.07202C0.479797 6.00021 0 6.47984 0 7.07154V17.9995H4.38698C4.64267 17.9995 4.75435 18.3171 4.55844 18.4814C4.06586 18.8946 3.75151 19.515 3.75151 20.2083C3.75151 21.509 4.85663 22.5527 6.17983 22.4537C7.29434 22.37 8.18738 21.4619 8.25506 20.3476C8.30018 19.5964 7.97681 18.9196 7.44888 18.4792C7.25448 18.3167 7.37142 17.9999 7.62486 17.9999H12.0107V13.6179C12.0107 13.3639 11.6934 13.2481 11.5309 13.4427C11.0898 13.9705 10.4115 14.2929 9.66136 14.2481C8.54535 14.1804 7.63764 13.2877 7.55342 12.1745" fill="#FF9A00"/>
<path id="Vector_4" d="M6.1794 22.4537C4.85658 22.5526 3.75109 21.5101 3.75109 20.2083C3.75109 19.5154 4.06544 18.8953 4.55802 18.4825C4.7543 18.3178 4.643 17.9995 4.38656 17.9995H0.000701904V28.9287C0.000701904 29.5203 0.480499 30 1.07272 30H12.0099V25.6168C12.0099 25.3613 12.328 25.2496 12.492 25.4454C12.9056 25.9377 13.5264 26.2515 14.2201 26.2515C15.5219 26.2515 16.5665 25.1473 16.4672 23.8249C16.3834 22.7114 15.4745 21.819 14.3593 21.7518C13.6076 21.7066 12.93 22.0301 12.4893 22.5571C12.3265 22.7514 12.0095 22.6348 12.0095 22.3812V17.9991H7.62368C7.36949 17.9991 7.2533 18.3159 7.44846 18.4788C7.97676 18.9196 8.29938 19.5972 8.25426 20.3469C8.18658 21.4623 7.29316 22.3689 6.17903 22.4529" fill="#F50000"/>
</g>
</svg>
